<?xml version="1.0" encoding="utf-8"?>
<!-- Generator: Adobe Illustrator 25.3.1, SVG Export Plug-In . SVG Version: 6.00 Build 0)  -->
<svg version="1.1" id="Layer_1" xmlns:serif="http://www.serif.com/"
	 xmlns="http://www.w3.org/2000/svg" xmlns:xlink="http://www.w3.org/1999/xlink" x="0px" y="0px" viewBox="0 0 456 456"
	 style="enable-background:new 0 0 456 456;" xml:space="preserve">
<style type="text/css">
	.st0{fill:#FFFFFF;}
</style>
<g>
	<path class="st0" d="M326.8,217.7c-10.2,16.1-24,37.6-32.6,51.1c-4,6.2-12.4,7.5-18.3,3c-29.4-22.8-87.5-38-139.3-24.9
		c-6.1,1.5-10.9-5.2-7.5-10.5l32.9-51.5c4.2-6.5,13.1-7.6,18.9-2.5c38.2,34,94.8,36.7,136.8,23.5
		C324.7,203.7,330.8,211.4,326.8,217.7z"/>
	<g>
		<path class="st0" d="M264.1,118.9l0,0.3c-0.1,2.6-2.4,4.6-5,4.3c-4.7-0.7-9.2-2.2-13.4-4.4c-2.6-1.4-3-5-0.8-7l0.2-0.2
			c1.3-1.3,3.3-1.6,5-0.7c3.2,1.7,6.7,2.9,10.4,3.4C262.6,114.8,264.2,116.7,264.1,118.9z"/>
		<path class="st0" d="M263.4,144l0,0.4c-0.1,2.6-2.3,4.5-4.9,4.3c-11.7-1.2-22.7-5.3-32.1-12.1c-2.3-1.6-2.5-4.9-0.4-6.8l0.3-0.2
			c1.6-1.5,3.9-1.5,5.7-0.3c8.3,5.9,17.9,9.4,27.7,10.3C261.8,139.7,263.5,141.7,263.4,144z"/>
		<path class="st0" d="M262.6,169.2L262.6,169.2c-0.1,2.5-2.2,4.5-4.6,4.3c-17.9-1.4-35.5-8-50.2-19.7c-2.1-1.7-2.3-4.9-0.3-6.7
			l0.2-0.2c1.6-1.5,4.1-1.6,5.9-0.1c12.8,10.4,28.4,16.6,45,17.9C260.9,164.8,262.7,166.9,262.6,169.2z"/>
		<path class="st0" d="M261.9,194.1l0,0.3c-0.1,2.5-2.2,4.4-4.6,4.3c-22.6-1.5-44.7-9.5-63.3-23.9c-1.5-1.3-3.1-2.5-4.6-3.8
			c-2-1.7-2.1-4.8-0.2-6.6l0.3-0.3c1.7-1.6,4.2-1.6,5.9-0.1c5,4.3,10.4,8.1,16,11.3c14.4,8.5,30.2,13.2,46.3,14.4
			C260.1,189.8,261.9,191.7,261.9,194.1z"/>
		<circle class="st0" cx="263.8" cy="95.3" r="4.7"/>
	</g>
	<g>
		<path class="st0" d="M212.9,342.8l-0.2,0.2c-1.3,1.3-3.3,1.7-5,0.9c-3.3-1.6-6.8-2.7-10.5-3.1c-2.2-0.3-3.9-2.1-3.9-4.4v-0.2
			c0-2.6,2.3-4.7,4.9-4.4c4.7,0.6,9.3,1.9,13.6,3.9C214.5,337,215,340.7,212.9,342.8z"/>
		<path class="st0" d="M231.2,324.6l-0.2,0.2c-1.5,1.5-3.9,1.7-5.7,0.5c-8.3-5.5-17.9-8.8-28-9.5c-2.3-0.2-4-2.1-4-4.4V311
			c0-2.6,2.2-4.6,4.8-4.4c11.3,0.8,22.6,4.6,32.4,11.1C232.8,319.3,233.1,322.6,231.2,324.6z"/>
		<path class="st0" d="M249.1,306.6l-0.3,0.3c-1.6,1.6-4.1,1.7-5.8,0.3c-13.5-10.2-29.4-15.6-45.4-16.4c-2.4-0.1-4.3-2-4.3-4.4V286
			c0-2.5,2-4.5,4.5-4.4c18.4,0.9,36.1,7.3,50.8,18.3C250.8,301.5,251,304.7,249.1,306.6z"/>
		<path class="st0" d="M266.9,288.8l-0.3,0.3c-1.6,1.6-4.2,1.7-5.9,0.2c-17.9-14.6-39.9-22.8-63-23.7c-2.4-0.1-4.3-2-4.3-4.4V261
			c0-2.5,2-4.5,4.5-4.4c25.3,1,49.2,9.9,68.8,25.7C268.6,284,268.7,287,266.9,288.8z"/>
		<circle class="st0" cx="195.2" cy="360.7" r="4.7"/>
	</g>
</g>
</svg>
