<svg xmlns="http://www.w3.org/2000/svg" xmlns:xlink="http://www.w3.org/1999/xlink" viewBox="0 0 200.09 274.67"><defs><style>.a{fill:url(#a);}.b{fill:url(#b);}.c{fill:url(#c);}.d{fill:url(#d);}.e{fill:url(#e);}.f{fill:url(#f);}.g{fill:url(#g);}.h{fill:url(#h);}.i{fill:url(#i);}.j{fill:url(#j);}.k{fill:url(#k);}</style><linearGradient id="a" x1="178.23" y1="11.92" x2="104.36" y2="276.43" gradientUnits="userSpaceOnUse"><stop offset="0.31" stop-color="#00ae55"/><stop offset="0.83" stop-color="#eeea4b"/></linearGradient><linearGradient id="b" x1="173.73" y1="10.66" x2="99.86" y2="275.17" gradientUnits="userSpaceOnUse"><stop offset="0.31" stop-color="#0da152"/><stop offset="0.83" stop-color="#eeea4b"/></linearGradient><linearGradient id="c" x1="170.19" y1="9.67" x2="96.31" y2="274.18" xlink:href="#b"/><linearGradient id="d" x1="166.74" y1="8.71" x2="92.87" y2="273.22" xlink:href="#b"/><linearGradient id="e" x1="163.39" y1="7.77" x2="89.52" y2="272.28" xlink:href="#b"/><linearGradient id="f" x1="135.73" y1="5.26" x2="61.86" y2="269.77" xlink:href="#b"/><linearGradient id="g" x1="184.53" y1="13.68" x2="110.66" y2="278.19" xlink:href="#b"/><linearGradient id="h" x1="187.36" y1="14.47" x2="113.49" y2="278.98" xlink:href="#b"/><linearGradient id="i" x1="190.13" y1="15.24" x2="116.26" y2="279.75" xlink:href="#b"/><linearGradient id="j" x1="192.83" y1="15.99" x2="118.96" y2="280.5" xlink:href="#b"/><linearGradient id="k" x1="140.84" y1="6.68" x2="66.96" y2="271.19" xlink:href="#b"/></defs><path class="a" d="M240.5,133.44c-10.24,16.05-24,37.65-32.61,51.12a12.48,12.48,0,0,1-18.27,3c-29.38-22.84-87.55-38-139.29-24.9a6.93,6.93,0,0,1-7.53-10.46l32.91-51.55a12.49,12.49,0,0,1,18.9-2.46c38.21,34,94.79,36.67,136.8,23.53A7.88,7.88,0,0,1,240.5,133.44Z" transform="translate(-41.69 -6.43)"/><path class="b" d="M177.88,34.68v.25a4.42,4.42,0,0,1-5,4.26,40.83,40.83,0,0,1-13.44-4.44,4.4,4.4,0,0,1-.83-7l.2-.19a4.33,4.33,0,0,1,5-.72,32.87,32.87,0,0,0,10.38,3.43A4.38,4.38,0,0,1,177.88,34.68Z" transform="translate(-41.69 -6.43)"/><path class="c" d="M177.12,59.75v.4a4.44,4.44,0,0,1-4.91,4.27A66.09,66.09,0,0,1,140.14,52.3a4.43,4.43,0,0,1-.45-6.82l.26-.24a4.47,4.47,0,0,1,5.66-.32,57.78,57.78,0,0,0,27.66,10.33A4.36,4.36,0,0,1,177.12,59.75Z" transform="translate(-41.69 -6.43)"/><path class="d" d="M176.36,85h0a4.37,4.37,0,0,1-4.65,4.26A91.92,91.92,0,0,1,121.55,69.6a4.44,4.44,0,0,1-.35-6.72l.25-.23a4.43,4.43,0,0,1,5.86-.15,81.35,81.35,0,0,0,45,17.89A4.47,4.47,0,0,1,176.36,85Z" transform="translate(-41.69 -6.43)"/><path class="e" d="M175.61,109.86v.26A4.4,4.4,0,0,1,171,114.4a116,116,0,0,1-63.32-23.94q-2.3-1.89-4.56-3.82a4.41,4.41,0,0,1-.15-6.56l.29-.27a4.41,4.41,0,0,1,5.92-.08,105.9,105.9,0,0,0,16,11.26,105.36,105.36,0,0,0,46.32,14.36A4.42,4.42,0,0,1,175.61,109.86Z" transform="translate(-41.69 -6.43)"/><circle class="f" cx="135.89" cy="4.66" r="4.66"/><path class="g" d="M126.64,258.57l-.24.23a4.32,4.32,0,0,1-5,.87A31.82,31.82,0,0,0,111,256.6a4.4,4.4,0,0,1-3.91-4.36V252a4.42,4.42,0,0,1,4.91-4.4,43.17,43.17,0,0,1,13.58,3.93A4.39,4.39,0,0,1,126.64,258.57Z" transform="translate(-41.69 -6.43)"/><path class="h" d="M144.88,240.32l-.22.22A4.49,4.49,0,0,1,139,241a57.38,57.38,0,0,0-28-9.47,4.36,4.36,0,0,1-4-4.38v-.39a4.44,4.44,0,0,1,4.78-4.41,67.23,67.23,0,0,1,32.38,11.13A4.43,4.43,0,0,1,144.88,240.32Z" transform="translate(-41.69 -6.43)"/><path class="i" d="M162.86,222.34l-.25.26a4.45,4.45,0,0,1-5.85.33,82,82,0,0,0-45.42-16.37,4.44,4.44,0,0,1-4.29-4.39v-.42a4.38,4.38,0,0,1,4.52-4.41,91.75,91.75,0,0,1,50.77,18.3A4.45,4.45,0,0,1,162.86,222.34Z" transform="translate(-41.69 -6.43)"/><path class="j" d="M180.6,204.6l-.27.27a4.41,4.41,0,0,1-5.93.25,106,106,0,0,0-63-23.7,4.43,4.43,0,0,1-4.32-4.4v-.24a4.4,4.4,0,0,1,4.51-4.42,115.51,115.51,0,0,1,68.77,25.75A4.38,4.38,0,0,1,180.6,204.6Z" transform="translate(-41.69 -6.43)"/><circle class="k" cx="67.3" cy="270" r="4.66"/></svg>